<svg xmlns="http://www.w3.org/2000/svg" width="202.307" height="46.438" viewBox="0 0 202.307 46.438"><defs><linearGradient id="linear-gradient" y1="0.5" x2="1.135" y2="0.5" gradientUnits="objectBoundingBox"><stop offset="0" stop-color="#096bce"></stop><stop offset="1" stop-color="#15c1ff"></stop></linearGradient><linearGradient id="linear-gradient-2" x1="0.5" x2="0.5" y2="1" gradientUnits="objectBoundingBox"><stop offset="0" stop-color="#00a99d"></stop><stop offset="1" stop-color="#0fd94d"></stop></linearGradient></defs><g id="Group_73" data-name="Group 73" transform="translate(426.772 -1690.086)"><g id="Group_71" data-name="Group 71" transform="translate(-426.772 1690.086)"><circle id="Ellipse_4" data-name="Ellipse 4" cx="16.648" cy="16.648" r="16.648" transform="translate(4.247)" fill="url(#linear-gradient)"></circle><g id="Group_70" data-name="Group 70" transform="translate(0 32.156)"><path id="Path_77" data-name="Path 77" d="M-405.877,1740.045a28.933,28.933,0,0,1-19.671-7.685,3.8,3.8,0,0,1-.217-5.373,3.8,3.8,0,0,1,5.373-.216,21.349,21.349,0,0,0,14.516,5.67,21.348,21.348,0,0,0,14.514-5.669,3.8,3.8,0,0,1,5.373.216,3.8,3.8,0,0,1-.216,5.373A28.932,28.932,0,0,1-405.877,1740.045Z" transform="translate(426.772 -1725.763)" fill="url(#linear-gradient-2)"></path></g></g><g id="Group_72" data-name="Group 72" transform="translate(-371.478 1700.878)"><path id="Path_78" data-name="Path 78" d="M-356.324,1725.43h10.393v3.168h-14.1v-24.748h3.712Z" transform="translate(360.036 -1703.851)"></path><path id="Path_79" data-name="Path 79" d="M-340.33,1707.961a11.615,11.615,0,0,1,7.9-3.213,11.454,11.454,0,0,1,7.854,3.213,11.3,11.3,0,0,1,3.554,8.828,12.942,12.942,0,0,1-.091,1.4h-19.1a7.972,7.972,0,0,0,2.716,5.522,7.812,7.812,0,0,0,5.161,1.992,7.933,7.933,0,0,0,6.2-2.625l2.9,1.675a11.483,11.483,0,0,1-9.144,4.119,10.67,10.67,0,0,1-3.915-.77,13.723,13.723,0,0,1-3.713-2.195,10.343,10.343,0,0,1-2.829-3.826,12.672,12.672,0,0,1-1.086-5.3A11.233,11.233,0,0,1-340.33,1707.961Zm12.991,1.9a7.784,7.784,0,0,0-5.093-1.945,7.7,7.7,0,0,0-5.07,1.945,7.892,7.892,0,0,0-2.671,5.478h15.527A7.85,7.85,0,0,0-327.339,1709.863Z" transform="translate(360.755 -1703.811)"></path><path id="Path_80" data-name="Path 80" d="M-307.571,1704.748a9.521,9.521,0,0,1,4.934,1.312,7.3,7.3,0,0,1,3.123,3.441v-4.481h3.622v23.539h-3.622v-4.617a7.771,7.771,0,0,1-3.123,3.531,9.042,9.042,0,0,1-4.934,1.4,11.08,11.08,0,0,1-7.718-3.213q-3.463-3.214-3.463-8.872a11.414,11.414,0,0,1,3.485-8.828A11.116,11.116,0,0,1-307.571,1704.748Zm.407,3.169a7.788,7.788,0,0,0-5.5,2.354,8.58,8.58,0,0,0-2.467,6.519,8.654,8.654,0,0,0,2.467,6.541,7.75,7.75,0,0,0,5.5,2.377,7.647,7.647,0,0,0,5.455-2.286q2.376-2.285,2.377-6.632t-2.355-6.609A7.66,7.66,0,0,0-307.164,1707.917Z" transform="translate(361.879 -1703.811)"></path><path id="Path_81" data-name="Path 81" d="M-279.972,1704.791q.633,0,1.719.092v3.349a12.6,12.6,0,0,0-1.764-.091,7.922,7.922,0,0,0-5.659,2.263,10.135,10.135,0,0,0-2.761,6.2v11.951H-292.1v-23.539h3.667v7.2a8.693,8.693,0,0,1,2.625-5.273A8.034,8.034,0,0,1-279.972,1704.791Z" transform="translate(363.069 -1703.809)"></path><path id="Path_82" data-name="Path 82" d="M-263.03,1704.791a8.94,8.94,0,0,1,6.383,2.49q2.625,2.49,2.625,7.559v13.716h-3.621v-13.58q0-3.576-1.653-5.3a5.782,5.782,0,0,0-4.369-1.721,7.166,7.166,0,0,0-5.227,2.242,8.707,8.707,0,0,0-2.648,4.594v13.761h-3.622v-23.539h3.622v5.613q.271-1.766,2.648-3.8A8.69,8.69,0,0,1-263.03,1704.791Z" transform="translate(363.825 -1703.809)"></path><path id="Path_83" data-name="Path 83" d="M-245.929,1705.008v23.539h-3.666v-23.539Z" transform="translate(364.966 -1703.799)"></path><path id="Path_84" data-name="Path 84" d="M-233.778,1705.518a10.7,10.7,0,0,1,3.915-.77,10.883,10.883,0,0,1,3.938.77,13.337,13.337,0,0,1,3.712,2.195,10.515,10.515,0,0,1,2.807,3.8,12.547,12.547,0,0,1,1.086,5.274,11.9,11.9,0,0,1-1.879,6.7,11.467,11.467,0,0,1-4.436,4.119,11.657,11.657,0,0,1-5.228,1.267,10.67,10.67,0,0,1-3.915-.77,13.724,13.724,0,0,1-3.713-2.195,10.344,10.344,0,0,1-2.829-3.826,12.689,12.689,0,0,1-1.086-5.3,12.546,12.546,0,0,1,1.086-5.274,10.383,10.383,0,0,1,2.829-3.8A13.774,13.774,0,0,1-233.778,1705.518Zm9.392,4.73a7.752,7.752,0,0,0-5.477-2.331,7.75,7.75,0,0,0-5.477,2.331,8.605,8.605,0,0,0-2.444,6.542,8.676,8.676,0,0,0,2.444,6.563,7.7,7.7,0,0,0,5.477,2.355,7.706,7.706,0,0,0,5.477-2.355,8.68,8.68,0,0,0,2.444-6.562A8.609,8.609,0,0,0-224.386,1710.248Z" transform="translate(365.332 -1703.811)"></path></g></g></svg>