<?xml version="1.0" encoding="UTF-8"?><svg id="a" xmlns="http://www.w3.org/2000/svg" xmlns:xlink="http://www.w3.org/1999/xlink" width="330" height="450" viewBox="0 0 330 450"><defs><style>.e{fill:url(#c);}.f{fill:url(#b);}.g{fill:url(#d);}.h{fill:#e8e8e8;opacity:.1;}</style><linearGradient id="b" x1="316.04" y1="115.47" x2="97.91" y2="338.01" gradientTransform="translate(-23.79 -51.1) rotate(-10.03) scale(1.04 1.06) skewX(.05)" gradientUnits="userSpaceOnUse"><stop offset="0" stop-color="#12a040"/><stop offset=".09" stop-color="#2da63a"/><stop offset=".21" stop-color="#4dae34"/><stop offset=".33" stop-color="#64b330"/><stop offset=".44" stop-color="#72b62d"/><stop offset=".54" stop-color="#77b82d"/></linearGradient><linearGradient id="c" x1="150.45" y1="412.77" x2="191.64" y2="597.28" gradientTransform="translate(-95.92 -53.61) rotate(-18.6)" gradientUnits="userSpaceOnUse"><stop offset=".12" stop-color="#78b82a"/><stop offset=".81" stop-color="#12a040"/></linearGradient><linearGradient id="d" x1="11.14" y1="21.55" x2="240.83" y2="275.45" gradientTransform="translate(2.01 -20.49) rotate(3.4)" gradientUnits="userSpaceOnUse"><stop offset=".25" stop-color="#3084b3"/><stop offset=".75" stop-color="#6ea7ce"/></linearGradient></defs><path class="f" d="M130.89,291.95c.23-.08,.48-.17,.73-.24,53.94-17.67,99.88-47.79,133.94-85.33,2.6-2.88,5.14-5.79,7.61-8.74,18.82-22.57,33.46-47.56,43.17-73.94,6.77-18.4,11.14-37.48,12.84-56.89,.1-1.09,.19-2.18,.27-3.28,.77-10.75,.72-21.61-.19-32.5-.12-1.42-.27-2.84-.42-4.26-.06,.05,.07-.05,0,0-.57-5.87-1.58-11.59-2.68-17.47-33.72,10.96-64.34,26.8-90.88,46.29-.36,.25-.7,.5-1.05,.76-13.96,10.33-26.8,21.7-38.35,33.87l-2.16,2.33-2.03,2.19c-.24,.26-.46,.52-.7,.79-48.95,54.31-73.04,124.01-60.55,193.95,.14,.84,.27,1.67,.43,2.49Z"/><path class="h" d="M130.95,292.39c.23-.08,.48-.17,.73-.24,17.56-47.71,51.29-90.83,96.57-123.47,25.9-18.65,55.56-33.87,88.16-44.54,6.77-18.4,11.14-37.48,12.84-56.89-47.25,15.23-88.41,40.02-120.9,70.99-44.07,41.98-72.18,95.32-77.83,151.67,.14,.84,.27,1.67,.43,2.49Z"/><path class="e" d="M127.2,266.02c.94,57.61,25.29,108.43,63.05,142.24,1.13,1.01,2.25,1.99,3.41,2.97,.19,.16,.39,.31,.58,.48,8.96,7.55,18.62,14.17,28.84,19.74,.26,.14,.52,.28,.78,.41,7.19,3.85,14.65,7.18,22.36,9.95,.63,.23,1.27,.46,1.91,.68,10.13,3.5,20.66,6.04,31.5,7.5,1.73-8.2,2.97-16.59,3.71-25.12,.07-.8,.12-1.6,.18-2.4,.35-4.61,.54-9.25,.57-13.95,0-.29,.01-.58,.02-.87,0-1.38,0-2.75-.02-4.13-.65-39.69-12.42-76.16-32.02-106.05-4.59-7.02-9.62-13.67-15.03-19.91-.65-.75-1.3-1.47-1.96-2.21-26.93-30.06-63.03-50.35-103.43-55.8-3.15,14.94-4.71,30.51-4.45,46.47Z"/><path class="h" d="M279.46,450c-.21-.15-.43-.31-.65-.46-11.74-35.43-38.88-75.28-77.69-114.11-22.2-22.2-48.22-44.06-77.37-64.56-4.52-13.66-6.76-26.66-6.5-38.69,42.29,29.58,78.03,62.04,105.17,94.29,36.82,43.73,57.79,87.05,57.69,122.27-.21,.43-.41,.85-.64,1.26Z"/><path class="g" d="M241.18,243.11c-.8,9.25-2.28,18.33-4.36,27.19-.2,.88-.41,1.76-.63,2.63-.21,.85-.43,1.67-.65,2.51-.68-.08-1.37-.18-2.05-.26-22.11-2.85-43.29-7.88-63.25-14.79-.67-.24-1.32-.48-1.99-.71-14.65-5.2-28.64-11.38-41.82-18.5-1.53-.82-3.04-1.66-4.55-2.51-.06-.03-.12-.07-.17-.1-9.9-5.58-19.34-11.68-28.26-18.24C39.73,180.74,4.91,124.23,.54,62.04c-.68-9.78-.62-19.69,.24-29.7C1.74,21.29,3.64,10.5,6.4,0,84.31,9.56,150.83,46.09,193.1,97.03c.61,.73,1.25,1.46,1.84,2.21,33.43,42.66,48.55,84.14,46.91,130.6-.03,.95-.03,1.91-.06,2.87-.12,3.45-.3,6.92-.6,10.4Z"/><path class="h" d="M237.36,266.79c-.1,1.25-.24,2.48-.37,3.71-.2,.88-.4,1.76-.62,2.63-.2,.85-.43,1.67-.64,2.51-.68-.08-1.37-.18-2.05-.26-22.12-2.86-43.32-7.89-63.3-14.8-.67-.24-1.32-.48-1.99-.71-14.67-5.2-28.68-11.39-41.89-18.51-1.53-.82-3.05-1.67-4.56-2.51-.06-.03-.12-.07-.17-.1-9.92-5.59-19.38-11.69-28.33-18.25C39.58,180.89,4.57,124.38,0,62.19c8.87-.24,17.86-.06,26.94,.59,55.87,3.98,105.61,24.48,142.74,55.22,36.73,30.41,61.14,70.83,66.92,115.22,1.42,10.99,1.72,22.21,.77,33.58Z"/></svg>